<svg version="1.1" id="Layer_1" xmlns="http://www.w3.org/2000/svg" xmlns:xlink="http://www.w3.org/1999/xlink" x="0px" y="0px"
	 width="100%" viewBox="0 0 70 71" enable-background="new 0 0 70 71" xml:space="preserve">
<path fill="#021392" opacity="1.000000" stroke="none" 
	d="
M4.000000,1.000000 
	C26.333334,1.000000 48.666668,1.000000 70.652061,1.625710 
	C70.107422,3.201333 69.910721,4.151245 69.518234,5.452553 
	C69.235016,25.549873 69.141586,45.295784 69.087921,65.041801 
	C69.086250,65.660248 69.495331,66.279800 69.753967,67.119247 
	C69.795021,67.339653 69.853363,67.784233 69.545258,67.987785 
	C67.407791,69.121063 65.586411,70.840210 63.747864,70.858757 
	C44.762543,71.050247 25.773659,71.039024 6.788558,70.830391 
	C5.186239,70.812775 3.604084,68.960327 1.987771,67.668900 
	C1.641987,66.918327 1.320994,66.459160 1.000000,66.000000 
	C1.000000,65.555557 1.000000,65.111107 1.253450,64.005234 
	C1.668901,61.539425 1.966992,59.735382 1.971483,57.930607 
	C2.009140,42.799316 1.860393,27.665922 2.084693,12.537860 
	C2.141843,8.683288 3.330973,4.845500 4.000000,1.000000 
M32.034187,12.602392 
	C31.604439,15.121268 30.261206,17.989422 31.046656,20.043659 
	C31.629025,21.566763 35.101727,22.954826 37.055759,22.690998 
	C38.764999,22.460215 40.933083,20.091904 41.528172,18.229933 
	C43.041008,13.496438 38.318020,10.397126 32.034187,12.602392 
M36.925854,25.699467 
	C33.403198,23.544088 34.373196,26.787483 34.361126,28.060884 
	C34.260132,38.716167 34.278912,49.373016 34.348785,60.028820 
	C34.355759,61.092297 34.942348,62.151978 35.259930,63.213417 
	C35.849316,63.144157 36.438698,63.074894 37.028084,63.005634 
	C37.028084,50.840466 37.028084,38.675301 36.925854,25.699467 
M30.146935,40.504959 
	C30.566380,48.018852 29.254868,55.655415 30.908909,63.081814 
	C31.376593,63.061260 31.844275,63.040707 32.311958,63.020153 
	C32.311958,50.294106 32.311958,37.568058 32.311958,24.842012 
	C31.616781,24.806669 30.921604,24.771326 30.226427,24.735983 
	C30.199932,29.659895 30.173437,34.583809 30.146935,40.504959 
M41.074600,34.543076 
	C41.037998,31.338392 41.001396,28.133711 40.964794,24.929028 
	C40.409782,24.965733 39.854774,25.002438 39.299763,25.039143 
	C39.299763,37.657829 39.299763,50.276516 39.299763,62.895203 
	C39.891376,62.905323 40.482986,62.915443 41.074600,62.925564 
	C41.074600,53.793259 41.074600,44.660954 41.074600,34.543076 
z"/>
<path fill="#F5F6FB" opacity="1.000000" stroke="none" 
	d="
M2.012562,67.960304 
	C3.604084,68.960327 5.186239,70.812775 6.788558,70.830391 
	C25.773659,71.039024 44.762543,71.050247 63.747864,70.858757 
	C65.586411,70.840210 67.407791,69.121063 69.837143,68.013931 
	C70.624763,67.891022 70.812386,67.945511 71.000000,68.000000 
	C71.000000,69.324730 71.000000,70.649467 71.000000,71.980652 
	C47.666668,71.987099 24.333336,71.987099 1.000001,71.983864 
	C1.000000,70.987083 1.000000,69.993546 1.250907,68.433098 
	C1.672063,67.897568 1.842312,67.928940 2.012562,67.960304 
z"/>
<path fill="#122199" opacity="1.000000" stroke="none" 
	d="
M3.500000,1.000000 
	C3.330973,4.845500 2.141843,8.683288 2.084693,12.537860 
	C1.860393,27.665922 2.009140,42.799316 1.971483,57.930607 
	C1.966992,59.735382 1.668901,61.539425 1.253450,63.671906 
	C1.000000,43.987270 0.986431,23.974514 1.031977,3.961889 
	C1.034868,2.691817 -0.031992,0.390059 3.500000,1.000000 
z"/>
<path fill="#6D77C0" opacity="1.000000" stroke="none" 
	d="
M71.000000,67.531342 
	C70.812386,67.945511 70.624763,67.891022 70.145248,67.810379 
	C69.853363,67.784233 69.795021,67.339653 69.834877,66.663475 
	C69.821167,45.691917 69.767593,25.396538 69.714027,5.101158 
	C69.910721,4.151245 70.107422,3.201333 70.652061,2.125710 
	C71.000000,23.687561 71.000000,45.375122 71.000000,67.531342 
z"/>
<path fill="#122199" opacity="1.000000" stroke="none" 
	d="
M1.987771,67.668900 
	C1.842312,67.928940 1.672063,67.897568 1.250907,67.933098 
	C1.000000,67.555557 1.000000,67.111107 1.000000,66.333328 
	C1.320994,66.459160 1.641987,66.918327 1.987771,67.668900 
z"/>
<path fill="#F0F1F8" opacity="1.000000" stroke="none" 
	d="
M32.339966,12.370173 
	C38.318020,10.397126 43.041008,13.496438 41.528172,18.229933 
	C40.933083,20.091904 38.764999,22.460215 37.055759,22.690998 
	C35.101727,22.954826 31.629025,21.566763 31.046656,20.043659 
	C30.261206,17.989422 31.604439,15.121268 32.339966,12.370173 
z"/>
<path fill="#CFD2EA" opacity="1.000000" stroke="none" 
	d="
M36.976967,26.104801 
	C37.028084,38.675301 37.028084,50.840466 37.028084,63.005634 
	C36.438698,63.074894 35.849316,63.144157 35.259930,63.213417 
	C34.942348,62.151978 34.355759,61.092297 34.348785,60.028820 
	C34.278912,49.373016 34.260132,38.716167 34.361126,28.060884 
	C34.373196,26.787483 33.403198,23.544088 36.976967,26.104801 
z"/>
<path fill="#CED2EA" opacity="1.000000" stroke="none" 
	d="
M30.146938,40.006340 
	C30.173437,34.583809 30.199932,29.659895 30.226427,24.735983 
	C30.921604,24.771326 31.616781,24.806669 32.311958,24.842012 
	C32.311958,37.568058 32.311958,50.294106 32.311958,63.020153 
	C31.844275,63.040707 31.376593,63.061260 30.908909,63.081814 
	C29.254868,55.655415 30.566380,48.018852 30.146938,40.006340 
z"/>
<path fill="#FAFAFD" opacity="1.000000" stroke="none" 
	d="
M41.074600,35.035862 
	C41.074600,44.660954 41.074600,53.793259 41.074600,62.925564 
	C40.482986,62.915443 39.891376,62.905323 39.299763,62.895203 
	C39.299763,50.276516 39.299763,37.657829 39.299763,25.039143 
	C39.854774,25.002438 40.409782,24.965733 40.964794,24.929028 
	C41.001396,28.133711 41.037998,31.338392 41.074600,35.035862 
z"/>
<path fill="#00028A" opacity="1.000000" stroke="none" 
	d="
M69.518234,5.452553 
	C69.767593,25.396538 69.821167,45.691917 69.793823,66.443069 
	C69.495331,66.279800 69.086250,65.660248 69.087921,65.041801 
	C69.141586,45.295784 69.235016,25.549873 69.518234,5.452553 
z"/>
</svg>